<?xml version="1.0" encoding="utf-8"?>
<!-- Generator: Adobe Illustrator 27.8.1, SVG Export Plug-In . SVG Version: 6.00 Build 0)  -->
<svg version="1.1" id="图层_1" xmlns="http://www.w3.org/2000/svg" xmlns:xlink="http://www.w3.org/1999/xlink" x="0px" y="0px"
	 viewBox="0 0 608 608" style="enable-background:new 0 0 608 608;" xml:space="preserve">
<style type="text/css">
	.st0{fill:#4CB7E7;}
	.st1{fill:#E1515C;}
</style>
<g id="_x23_4cb7e7ff">
	<path class="st0" d="M335.6,37.4c2.1-0.9,4.4-2.4,6.7-1.2c11.8,5.1,23.4,10.8,35.2,15.9c9.8,4.4,19.4,9.3,29.3,13.4
		c5.6,2.6,10.9,5.6,16.6,7.8c23.7,10.5,47.2,21.5,70.8,32.3c6.5,3.6,13.7,6,20.4,9.2c1.6,1,3.8,1.7,4.2,3.8
		c0.5,3.4,0.3,6.8,0.3,10.1c-0.2,13.1,0.3,26.1-0.2,39.2c-5.6-2.3-10.9-5.1-16.5-7.4c-6.5-2.8-13.2-5.2-19.4-8.6
		c-4.2-2.2-8.6-3.8-13-5.3c-6.1-2.6-12.2-5-18.1-7.9c-3.6-1.8-7.5-2.9-10.9-5.1c-6.1-4.3-13.3-6.5-19.9-9.9
		c-8.6-3.6-16.8-7.7-25.4-11.3c-15.8-7.7-32-14.6-48-21.9c-3.1-1.4-6.6-3.2-10-1.5c-9,3.9-18.1,7.8-27,12.1
		c-3.9,1.7-7.9,3.2-11.4,5.6c-4.9,3-10.3,5.1-15.7,7.2c-4.8,2.6-10,4.4-14.8,7.1c-2.1,1.1-4.3,2-6.5,2.6c-5.3,1-10,3.8-14.9,6
		c-23.8,10.7-47.5,21.7-71.4,32.2c-11.1,4.8-22,10-33,14.9c-3.7,1.7-7.6,2.8-11,5.1c-1.5,1-1.3,3.1-1.5,4.6c0.1,59,0,118,0,177
		c0.1,4.5-0.4,9.1,0.2,13.5c0.2,2.5,3,3,4.8,3.9c6,2.2,11.6,5.5,17.5,7.9c4.7,1.9,9.3,4.3,13.9,6.5c13.8,6,27.2,12.8,41,18.6
		c9.3,4.8,19.1,8.5,28.4,13.1c7.5,3,14.3,7.7,22.3,9.6c8.8,3.1,17,7.5,25.3,11.6c13.5,5.9,26.8,12,39.9,18.7c2.9,1.1,6,1.8,8.6,3.6
		c3.5,2.3,7.9,3.2,11.9,1.9c7.8-2.6,14.8-7.3,22.6-10.1c9.7-4.8,19.4-9.9,29.6-13.9c7.3-3.8,14.8-7.3,22.4-10.5
		c6.3-2.1,11.7-6.2,18-8.4c3.5-1.7,8.1-2,10.6-5.2c2.2-0.7,4.4-1.2,6.4-2.3c5.5-3.3,11.6-5.5,17.6-7.5c1.1-5.3,0.5-10.8,0.6-16.2
		c-0.1-6.2,0.3-12.5-0.3-18.7c-1.8,0.3-3.7,0.4-5.4,1.4c-4.4,2.5-9,4.4-13.5,6.7c-7,2.7-13.4,6.8-20.6,9.1
		c-9.6,2.4-18.1,7.6-27.1,11.5c-6.4,3-13,5.5-19.3,8.7c-5.9,3-12.2,5.4-18.3,8.1c-8.7,3.7-17,8.3-26,11.4
		c-0.4-8.8-0.1-17.5-0.2-26.3c0.1-8.2-0.3-16.4,0.2-24.6c5.9-3.3,12.3-5.3,18.3-8.3c17.7-8.3,35.7-15.7,53.3-24
		c14.9-6.2,29.5-13.1,44.2-19.6c15.5-6.5,30.6-13.9,46-20.5c5-2.3,9.9-4.7,15.3-6.1c0.4,42.3,0,84.6,0.2,126.9
		c-0.1,3.2,0.4,6.6-0.8,9.7c-2.5,2.4-6.1,3.3-9.2,4.7c-22.4,10.2-44.9,20.2-67.2,30.5c-12.5,6.2-25.4,11.3-37.9,17.5
		c-20.1,9-40.2,17.9-60,27.5c-1.6,0.7-3.4,1.5-5.2,0.8c-4-1.5-7.6-3.8-11.5-5.5c-7.5-3.2-14.6-7.3-22.2-10.3
		c-6.7-2.7-12.9-6.5-19.6-9.2c-7.8-3-15.1-7.2-22.8-10.4c-9.2-4.4-18.6-8.4-27.7-13.1c-6-3-12.4-5-18.2-8.3
		c-3.3-1.9-6.9-3.2-10.5-4.1c-3.5-0.9-6.5-3-9.7-4.5c-8.8-3.6-17.4-7.7-25.5-12.6c-2.8-1.4-6.1-1.7-8.8-3.4c-4.6-2.9-9.9-4-14.6-6.6
		c-2.8-1.5-5.6-2.9-8.6-4.1c-3.1-1.3-5.8-3.4-9-4.4c-5.1-1.4-9.4-4.5-14.1-6.7c-4.6-2.4-9.7-3.4-14-6.4c-5-3.2-11.3-4-16-7.8
		c-1.4-0.9-1.6-2.6-1.6-4.1c0-79.7,0-159.4,0-239.1c0-3.7-0.2-7.4,0.1-11c-0.1-1.3,1.3-1.9,2.3-2.3c2.5-1.1,5-2.2,7.4-3.5
		c4.1-2.4,8.9-3.3,12.9-5.8c4-2.5,8.8-3.5,12.8-6c3.4-1.9,7.2-2.9,10.5-4.9c3.7-2.2,7.6-3.9,11.6-5.3c3.3-1.1,6.2-3.2,9.5-4.3
		c7.3-2.2,13.7-6.6,20.6-9.7c4.5-1.6,9.1-3.3,13.2-5.7c3.7-2.1,7.8-3.3,11.6-5.4c4.8-2.6,9.9-4.3,14.8-6.6c3.1-1.3,5.8-3.2,9-4.2
		c6-1.5,11.3-4.9,16.9-7.3c6.6-2.7,12.9-6.1,19.5-8.7c5.7-2.3,11-5.4,16.6-7.8c13.6-5.8,26.8-12.6,40.5-18.3
		C321.2,43.7,328.6,41,335.6,37.4z"/>
</g>
<g id="_x23_e1515cff">
	<path class="st1" d="M336.2,124.6c2-0.8,4.3-1.9,6.5-1.2c3.1,0.9,6,2.4,9,3.8c13.3,6.2,26.9,12,40,18.6
		c13.2,5.7,26.3,11.7,39.4,17.7c4.7,2.3,9.5,4.8,14.6,6.1c7.9,3.1,15.8,6.3,23.1,10.6c6.4,3.1,13.2,5.4,19.4,8.8
		c3,1.7,6.5,2.3,9.5,4.2c4.6,3,9.9,4.7,14.8,7c2.1,1.1,4.9,1.4,6.3,3.6c0.6,3.9,0.2,7.9,0.3,11.8c-0.1,12.9,0.2,25.9-0.2,38.8
		c-3.7-0.8-7.2-2.1-10.4-4.1c-4.2-2.7-9.1-3.8-13.6-6c-20.1-9.4-40.5-18.1-60.3-28c-2.8-1.7-6.1-2.3-9.1-3.8
		c-5.4-2.7-10.9-5.4-16.7-7.3c-6.6-2.5-12.3-7-18.9-9.4c-7.9-3.2-15.8-6.5-23.4-10.2c-3.8-2.9-8.6-3.7-12.8-5.8
		c-2.8-1.3-5.7-2.6-8.6-3.7c0.1-0.6,0.2-1.2,0.3-1.7c-1.5,0-3.1,0-4.6,0c-3.6-0.2-6.9,1.6-10.2,3c-15,6.5-29.6,13.8-44.8,19.9
		c-2.2,0.9-4.4,1.7-6.3,3.2c-1,1-0.3,2.7,1,3.1c32.6,15.1,65.3,30.1,98,45.1c16.8,8.3,34.1,15.7,51,23.7c8.9,4.3,18.1,7.9,26.9,12.3
		c7.7,3.3,15.4,6.7,22.9,10.4c-4.3,2.6-8.9,4.3-13.4,6.5c-8.2,4.1-16.3,8.3-24.6,11.9c-6.2,2.8-12.6,5.3-18.1,9.3
		c-0.7,0.4-1.4,0.7-2.1,1c-9.1,2.9-17.4,7.7-26,11.7c-5.6,2.5-11,5.6-16.6,8.1c-10.2,4.3-19.9,9.7-29.9,14.2
		c-10.7,4.7-21.1,10.2-31.6,15.2c-14.5,6.3-28.2,14.2-42.8,20.2c-3.5,1.5-6.7,3.7-10.3,5.1c-3,1.2-6.2-0.2-9.1-1.1l-0.5-0.3
		c-7.4-5-16-7.8-23.9-11.8c-9.3-4-18.3-8.6-27.6-12.5c-5-2.5-9.9-4.9-15.1-6.9c-4.8-2.1-9.3-4.9-14.2-6.9c-3.1-1.4-6.6-2.4-9.3-4.5
		c-1.5-1.1-1.3-3.2-1.4-4.9c0.1-34,0.1-68.1,0-102.1c0-2.2,0.2-4.3,0.3-6.5c3.4,0.7,6.8,1.8,9.8,3.5c6.9,3.7,14.3,6.5,21.2,10.2
		c4.6,2.5,9.5,4.5,14.5,6.3c0.9,9.1,0.2,18.2,0.4,27.3c0.2,12.4-0.5,24.8,0.3,37.2c15.6,7.2,31.4,13.7,46.9,21.2
		c2,0.9,4.3,2,6.6,1.1c11.2-4.4,21.8-10.1,32.8-14.9c6.4-2.9,12.5-6.4,19-9.1c7.3-3,14.1-7,21.4-10.1c9.7-4.2,19.1-9.3,28.9-13.2
		c-0.2-1.3-0.3-2.6-0.6-3.9c-2.5-2-5.7-2.9-8.6-4.1c-5.4-2.1-10.3-5.6-16.1-6.6l-0.7-0.3c-5.6-3.5-11.8-6-17.8-8.7
		c-8.8-4.4-18.1-7.7-26.8-12.4c-14.7-6-28.6-13.5-43.2-19.7c-14-6.5-28.2-12.5-42.1-19.2c-8.7-3.4-16.6-8.5-25.7-11
		c-0.3-0.1-0.8-0.4-1.1-0.5c-5.2-3.2-10.8-5.6-15.9-8.9c4.1-2.4,8.4-4.5,12.9-6.4c7.3-3,14.2-6.9,21.5-10c8.3-3.4,15.9-8,24.2-11.4
		c4.3-1.8,8.5-3.9,12.6-6c5.8-3,11.9-5.1,17.7-8c4.2-2.1,8.4-4.2,12.7-6.1c7.5-3.2,14.5-7.2,22-10.3c7.9-3.2,15.2-7.7,23.2-10.9
		C320.9,132.3,328.4,128.1,336.2,124.6z"/>
</g>
</svg>
